<?xml version="1.0" encoding="utf-8"?>
<!-- Generator: Adobe Illustrator 17.0.2, SVG Export Plug-In . SVG Version: 6.00 Build 0)  -->
<!DOCTYPE svg PUBLIC "-//W3C//DTD SVG 1.1//EN" "http://www.w3.org/Graphics/SVG/1.1/DTD/svg11.dtd">
<svg version="1.1" id="Ebene_1" xmlns="http://www.w3.org/2000/svg" xmlns:xlink="http://www.w3.org/1999/xlink" x="0px" y="0px"
	 width="33px" height="33px" viewBox="0 0 33 33" enable-background="new 0 0 33 33" xml:space="preserve">
<g>
	<path fill="#35A8E0" d="M8.883,14.168c-1.644,0-2.278,1.541-2.278,2.84c0,1.299,0.588,2.84,2.278,2.84s2.264-1.541,2.264-2.84
		C11.147,15.709,10.574,14.168,8.883,14.168z"/>
	<path fill="#35A8E0" d="M17.572,14.168c-1.69,0-2.279,1.541-2.279,2.84c0,1.299,0.589,2.84,2.279,2.84
		c1.69,0,2.278-1.541,2.278-2.84C19.85,15.709,19.262,14.168,17.572,14.168z"/>
	<path fill="#35A8E0" d="M16.5,0C7.402,0,0,7.402,0,16.5C0,25.598,7.402,33,16.5,33c9.1,0,16.502-7.402,16.502-16.5
		C33.002,7.402,25.6,0,16.5,0z M12.234,20.036c0,0.402-0.196,0.617-0.544,0.617c-0.347,0-0.543-0.214-0.543-0.617v-0.442h-0.045
		c-0.483,0.697-1.283,1.059-2.219,1.059c-2.309,0-3.456-1.635-3.456-3.644c0-1.795,1.102-3.644,3.426-3.644
		c0.936,0,1.63,0.348,2.249,1.058h0.045v-0.442c0-0.402,0.196-0.616,0.543-0.616c0.348,0,0.544,0.214,0.544,0.616V20.036z
		 M17.572,20.653c-0.936,0-1.735-0.362-2.219-1.059h-0.045v0.442c0,0.402-0.196,0.617-0.544,0.617c-0.347,0-0.543-0.214-0.543-0.617
		v-9.19c0-0.402,0.196-0.616,0.543-0.616c0.348,0,0.544,0.214,0.544,0.616v3.577h0.045c0.619-0.71,1.314-1.058,2.249-1.058
		c2.323,0,3.426,1.849,3.426,3.644C21.028,19.018,19.88,20.653,17.572,20.653z M25.656,19.768c0.981,0,1.328-0.375,1.63-0.375
		c0.196,0,0.453,0.161,0.453,0.388c0,0.589-1.012,0.871-2.083,0.871c-2.264,0-3.456-1.849-3.456-3.644
		c0-1.795,1.313-3.644,3.592-3.644c1.026,0,1.992,0.348,1.992,0.75c0,0.308-0.181,0.536-0.604,0.536
		c-0.287,0-0.543-0.402-1.524-0.402c-1.539,0-2.278,1.541-2.278,2.679C23.377,18.429,24.238,19.768,25.656,19.768z"/>
</g>
</svg>
