<?xml version="1.0" encoding="utf-8"?>
<!-- Generator: Adobe Illustrator 17.0.2, SVG Export Plug-In . SVG Version: 6.00 Build 0)  -->
<!DOCTYPE svg PUBLIC "-//W3C//DTD SVG 1.1//EN" "http://www.w3.org/Graphics/SVG/1.1/DTD/svg11.dtd">
<svg version="1.1" id="Ebene_1" xmlns="http://www.w3.org/2000/svg" xmlns:xlink="http://www.w3.org/1999/xlink" x="0px" y="0px"
	 width="33px" height="33px" viewBox="0 0 33 33" enable-background="new 0 0 33 33" xml:space="preserve">
<g>
	<path fill="#1D1D1B" d="M11.042,13.92c0-0.402,0.196-0.616,0.543-0.616c0.348,0,0.544,0.214,0.544,0.616v6.055
		c0,0.402-0.196,0.617-0.544,0.617c-0.347,0-0.543-0.214-0.543-0.617v-0.442h-0.045c-0.483,0.697-1.283,1.059-2.219,1.059
		c-2.308,0-3.456-1.635-3.456-3.644c0-1.795,1.102-3.644,3.426-3.644c0.936,0,1.63,0.348,2.249,1.058h0.045V13.92z M8.778,19.788
		c1.691,0,2.264-1.541,2.264-2.84c0-1.3-0.573-2.84-2.264-2.84c-1.644,0-2.278,1.54-2.278,2.84
		C6.5,18.247,7.088,19.788,8.778,19.788z"/>
	<path fill="#1D1D1B" d="M14.116,10.785c0-0.402,0.196-0.616,0.543-0.616c0.348,0,0.544,0.214,0.544,0.616v3.577h0.045
		c0.619-0.71,1.313-1.058,2.249-1.058c2.323,0,3.426,1.849,3.426,3.644c0,2.009-1.147,3.644-3.456,3.644
		c-0.935,0-1.735-0.362-2.219-1.059h-0.045v0.442c0,0.402-0.196,0.617-0.544,0.617c-0.347,0-0.543-0.214-0.543-0.617V10.785z
		 M17.467,19.788c1.691,0,2.278-1.541,2.278-2.84c0-1.3-0.588-2.84-2.278-2.84c-1.69,0-2.279,1.54-2.279,2.84
		C15.188,18.247,15.776,19.788,17.467,19.788z"/>
	<path fill="#1D1D1B" d="M27.181,19.333c0.196,0,0.453,0.161,0.453,0.388c0,0.589-1.012,0.871-2.083,0.871
		c-2.264,0-3.456-1.849-3.456-3.644c0-1.795,1.313-3.644,3.592-3.644c1.026,0,1.992,0.348,1.992,0.75
		c0,0.308-0.181,0.536-0.604,0.536c-0.287,0-0.543-0.402-1.524-0.402c-1.539,0-2.278,1.541-2.278,2.679c0,1.5,0.86,2.84,2.278,2.84
		C26.532,19.708,26.879,19.333,27.181,19.333z"/>
</g>
<path fill="#000100" d="M16.5,0C7.402,0,0,7.402,0,16.5C0,25.598,7.402,33,16.5,33c9.1,0,16.502-7.402,16.502-16.5
	C33.002,7.402,25.6,0,16.5,0z M16.5,32C7.953,32,1,25.047,1,16.5S7.953,1,16.5,1c8.549,0,15.502,6.953,15.502,15.5
	S25.049,32,16.5,32z"/>
</svg>
