<?xml version="1.0" encoding="utf-8"?>
<!-- Generator: Adobe Illustrator 17.0.2, SVG Export Plug-In . SVG Version: 6.00 Build 0)  -->
<!DOCTYPE svg PUBLIC "-//W3C//DTD SVG 1.1//EN" "http://www.w3.org/Graphics/SVG/1.1/DTD/svg11.dtd">
<svg version="1.1" id="Ebene_1" xmlns="http://www.w3.org/2000/svg" xmlns:xlink="http://www.w3.org/1999/xlink" x="0px" y="0px"
	 width="31px" height="36px" viewBox="0 0 31 36" enable-background="new 0 0 31 36" xml:space="preserve">
<g>
	<path fill="#1D1D1B" d="M30.044,11.815c-2.721,1.92-4.081,4.239-4.081,6.95c0,3.259,1.678,5.76,5.033,7.498
		c-0.907,2.608-2.212,4.884-3.916,6.824C25.377,35.03,23.832,36,22.446,36c-0.687,0-1.613-0.22-2.779-0.662l-0.544-0.214
		l-0.913-0.35c-0.583-0.208-1.283-0.311-2.099-0.311c-0.803,0-1.691,0.175-2.662,0.525l-0.7,0.253l-0.875,0.37
		C11.2,35.87,10.513,36,9.814,36c-2.215,0-4.405-1.862-6.569-5.588S0,22.913,0,19.096c0-3.243,0.9-5.864,2.701-7.855
		c1.801-1.995,4.172-2.99,7.113-2.99c1.101,0,2.138,0.201,3.109,0.603l0.661,0.272l0.7,0.292c0.609,0.246,1.101,0.37,1.477,0.37
		c0.492,0,1.036-0.11,1.632-0.331l0.913-0.35l0.661-0.253c1.101-0.402,2.3-0.603,3.595-0.603
		C25.672,8.251,28.165,9.438,30.044,11.815z M22.718,0c0.026,0.415,0.039,0.733,0.039,0.953c0,2.063-0.748,3.869-2.245,5.419
		c-1.496,1.55-3.242,2.325-5.237,2.325c-0.052-0.454-0.078-0.791-0.078-1.012c0-1.738,0.696-3.373,2.089-4.904
		c1.393-1.531,3.003-2.432,4.829-2.705C22.245,0.065,22.446,0.039,22.718,0z"/>
</g>
</svg>
