<?xml version="1.0" encoding="utf-8"?>
<!-- Generator: Adobe Illustrator 17.0.2, SVG Export Plug-In . SVG Version: 6.00 Build 0)  -->
<!DOCTYPE svg PUBLIC "-//W3C//DTD SVG 1.1//EN" "http://www.w3.org/Graphics/SVG/1.1/DTD/svg11.dtd">
<svg version="1.1" id="Ebene_1" xmlns="http://www.w3.org/2000/svg" xmlns:xlink="http://www.w3.org/1999/xlink" x="0px" y="0px"
	 width="33px" height="33px" viewBox="0 0 33 33" enable-background="new 0 0 33 33" xml:space="preserve">
<path fill="#35A8E0" d="M16.5,0C7.402,0,0,7.402,0,16.5C0,25.598,7.402,33,16.5,33c9.1,0,16.502-7.402,16.502-16.5
	C33.002,7.402,25.6,0,16.5,0z M22.332,21.979c0.234,0.234,0.234,0.614,0,0.849c-0.117,0.117-0.271,0.176-0.424,0.176
	s-0.307-0.059-0.424-0.176l-5.144-5.143l-5.143,5.143c-0.116,0.117-0.271,0.176-0.424,0.176c-0.153,0-0.307-0.059-0.424-0.176
	c-0.234-0.234-0.234-0.615,0-0.85l5.142-5.143l-5.143-5.143c-0.234-0.234-0.234-0.615,0-0.85c0.234-0.234,0.613-0.234,0.848,0
	l5.144,5.145l5.144-5.145c0.232-0.234,0.613-0.234,0.848,0c0.234,0.234,0.234,0.613,0,0.848l-5.143,5.144L22.332,21.979z"/>
</svg>
