<?xml version="1.0" encoding="utf-8"?>
<!-- Generator: Adobe Illustrator 17.0.2, SVG Export Plug-In . SVG Version: 6.00 Build 0)  -->
<!DOCTYPE svg PUBLIC "-//W3C//DTD SVG 1.1//EN" "http://www.w3.org/Graphics/SVG/1.1/DTD/svg11.dtd">
<svg version="1.1" id="Ebene_1" xmlns="http://www.w3.org/2000/svg" xmlns:xlink="http://www.w3.org/1999/xlink" x="0px" y="0px"
	 width="33px" height="33px" viewBox="0 0 33 33" enable-background="new 0 0 33 33" xml:space="preserve">
<path fill="#1D1D1B" d="M13.066,15.846l3.09,3.048c0.016,0.014,0.033,0.02,0.049,0.031c0.035,0.028,0.07,0.057,0.113,0.074
	c0.061,0.025,0.125,0.038,0.189,0.038c0.065,0,0.131-0.013,0.191-0.038c0.055-0.023,0.104-0.058,0.146-0.098
	c0.004-0.004,0.01-0.005,0.014-0.009l0.002-0.001c0-0.001,0-0.001,0.002-0.002l3.07-3.045c0.197-0.194,0.199-0.511,0.004-0.707
	c-0.195-0.196-0.512-0.198-0.707-0.003l-2.223,2.204L17,9.374c0-0.276-0.223-0.5-0.5-0.5c-0.275,0-0.5,0.225-0.5,0.501l0.008,7.966
	l-2.238-2.207c-0.197-0.194-0.512-0.192-0.707,0.005C12.869,15.335,12.871,15.651,13.066,15.846z M20.713,8.939
	c-0.238-0.135-0.545-0.052-0.682,0.191c-0.135,0.24-0.051,0.546,0.191,0.681c2.391,1.348,3.875,3.884,3.875,6.62
	c0,4.19-3.408,7.598-7.598,7.598c-4.189,0-7.598-3.408-7.598-7.598c0-2.737,1.486-5.274,3.877-6.621
	c0.24-0.135,0.326-0.441,0.189-0.681c-0.137-0.241-0.445-0.326-0.68-0.19c-2.705,1.523-4.387,4.394-4.387,7.492
	c0,4.741,3.857,8.598,8.598,8.598c4.742,0,8.598-3.856,8.598-8.598C25.098,13.334,23.418,10.464,20.713,8.939z M16.5,0
	C7.402,0,0,7.401,0,16.5C0,25.599,7.402,33,16.5,33C25.598,33,33,25.599,33,16.5C33,7.401,25.598,0,16.5,0z M16.5,32
	C7.953,32,1,25.047,1,16.5S7.953,1,16.5,1S32,7.953,32,16.5S25.047,32,16.5,32z"/>
</svg>
