<?xml version="1.0" encoding="utf-8"?>
<!-- Generator: Adobe Illustrator 17.0.2, SVG Export Plug-In . SVG Version: 6.00 Build 0)  -->
<!DOCTYPE svg PUBLIC "-//W3C//DTD SVG 1.1//EN" "http://www.w3.org/Graphics/SVG/1.1/DTD/svg11.dtd">
<svg version="1.1" id="Ebene_1" xmlns="http://www.w3.org/2000/svg" xmlns:xlink="http://www.w3.org/1999/xlink" x="0px" y="0px"
	 width="33px" height="33px" viewBox="0 0 33 33" enable-background="new 0 0 33 33" xml:space="preserve">
<path fill="#35A8E0" d="M16.5,0C7.402,0,0,7.401,0,16.5C0,25.599,7.402,33,16.5,33C25.598,33,33,25.599,33,16.5
	C33,7.401,25.598,0,16.5,0z M13.769,15.134l2.238,2.207L16,9.375c0-0.276,0.225-0.501,0.5-0.501c0.277,0,0.5,0.224,0.5,0.5
	l0.008,7.965l2.223-2.204c0.195-0.195,0.512-0.193,0.707,0.003c0.195,0.196,0.193,0.513-0.004,0.707l-3.07,3.045
	c-0.002,0.001-0.002,0.001-0.002,0.002l-0.002,0.001c-0.004,0.004-0.01,0.005-0.014,0.009c-0.043,0.04-0.092,0.074-0.146,0.098
	c-0.061,0.025-0.127,0.038-0.191,0.038c-0.064,0-0.129-0.013-0.189-0.038c-0.043-0.018-0.078-0.046-0.113-0.074
	c-0.016-0.012-0.033-0.018-0.049-0.031l-3.09-3.048c-0.195-0.194-0.197-0.511-0.004-0.707
	C13.258,14.941,13.572,14.939,13.769,15.134z M16.5,25.028c-4.74,0-8.598-3.856-8.598-8.598c0-3.098,1.682-5.969,4.387-7.492
	c0.234-0.136,0.543-0.051,0.68,0.19c0.137,0.24,0.051,0.546-0.189,0.681c-2.391,1.347-3.877,3.884-3.877,6.621
	c0,4.19,3.408,7.598,7.598,7.598c4.189,0,7.598-3.408,7.598-7.598c0-2.736-1.484-5.272-3.875-6.62
	c-0.242-0.135-0.326-0.44-0.191-0.681c0.137-0.242,0.443-0.325,0.682-0.191c2.705,1.524,4.385,4.395,4.385,7.491
	C25.098,21.172,21.242,25.028,16.5,25.028z"/>
</svg>
