<?xml version="1.0" encoding="utf-8"?>
<!-- Generator: Adobe Illustrator 17.0.2, SVG Export Plug-In . SVG Version: 6.00 Build 0)  -->
<!DOCTYPE svg PUBLIC "-//W3C//DTD SVG 1.1//EN" "http://www.w3.org/Graphics/SVG/1.1/DTD/svg11.dtd">
<svg version="1.1" id="Ebene_1" xmlns="http://www.w3.org/2000/svg" xmlns:xlink="http://www.w3.org/1999/xlink" x="0px" y="0px"
	 width="33px" height="33px" viewBox="0 0 33 33" enable-background="new 0 0 33 33" xml:space="preserve">
<path fill="#000100" d="M25.417,10.643H7.583c-0.006,0-0.012,0.003-0.018,0.003c-0.036,0.002-0.069,0.012-0.105,0.021
	c-0.029,0.007-0.059,0.011-0.085,0.023c-0.025,0.012-0.047,0.031-0.07,0.047c-0.031,0.022-0.062,0.041-0.087,0.067
	c-0.004,0.005-0.01,0.006-0.014,0.011c-0.016,0.018-0.022,0.041-0.034,0.061c-0.02,0.03-0.04,0.059-0.053,0.093
	s-0.016,0.068-0.021,0.104c-0.003,0.024-0.014,0.045-0.014,0.069v10.715c0,0.276,0.224,0.5,0.5,0.5h17.834
	c0.276,0,0.5-0.224,0.5-0.5V11.143C25.917,10.866,25.693,10.643,25.417,10.643z M24.168,11.643l-7.713,6.481L8.93,11.643H24.168z
	 M24.917,21.357H8.083v-9.125l8.042,6.926c0.094,0.081,0.21,0.121,0.326,0.121c0.114,0,0.229-0.039,0.322-0.117l8.144-6.843V21.357z
	 M16.5,0C7.402,0,0,7.402,0,16.5C0,25.598,7.402,33,16.5,33C25.599,33,33,25.598,33,16.5C33,7.402,25.599,0,16.5,0z M16.5,32
	C7.953,32,1,25.047,1,16.5S7.953,1,16.5,1S32,7.953,32,16.5S25.047,32,16.5,32z"/>
</svg>
