<?xml version="1.0" encoding="utf-8"?>
<!-- Generator: Adobe Illustrator 17.0.2, SVG Export Plug-In . SVG Version: 6.00 Build 0)  -->
<!DOCTYPE svg PUBLIC "-//W3C//DTD SVG 1.1//EN" "http://www.w3.org/Graphics/SVG/1.1/DTD/svg11.dtd">
<svg version="1.1" id="Ebene_1" xmlns="http://www.w3.org/2000/svg" xmlns:xlink="http://www.w3.org/1999/xlink" x="0px" y="0px"
	 width="33px" height="33px" viewBox="0 0 33 33" enable-background="new 0 0 33 33" xml:space="preserve">
<g>
	<path fill="#35A8E0" d="M16.5,0C7.402,0,0,7.402,0,16.5C0,25.598,7.402,33,16.5,33C25.599,33,33,25.598,33,16.5
		C33,7.402,25.599,0,16.5,0z M25.917,21.857c0,0.276-0.224,0.5-0.5,0.5H7.583c-0.276,0-0.5-0.224-0.5-0.5V11.143
		c0-0.024,0.011-0.045,0.014-0.069c0.005-0.036,0.008-0.07,0.021-0.104c0.013-0.034,0.033-0.062,0.053-0.093
		c0.012-0.02,0.018-0.042,0.034-0.061c0.004-0.005,0.01-0.006,0.014-0.011c0.025-0.027,0.056-0.046,0.087-0.067
		c0.023-0.016,0.045-0.036,0.07-0.047c0.026-0.012,0.056-0.016,0.085-0.023c0.035-0.009,0.069-0.02,0.105-0.021
		c0.006,0,0.012-0.003,0.018-0.003h17.834c0.276,0,0.5,0.224,0.5,0.5V21.857z"/>
	<polygon fill="#35A8E0" points="24.168,11.643 8.93,11.643 16.455,18.124 	"/>
	<path fill="#35A8E0" d="M16.451,19.28c-0.116,0-0.233-0.041-0.326-0.121l-8.042-6.926v9.125h16.834V12.32l-8.144,6.843
		C16.68,19.241,16.565,19.28,16.451,19.28z"/>
</g>
</svg>
