<?xml version="1.0" encoding="utf-8"?>
<!-- Generator: Adobe Illustrator 17.0.2, SVG Export Plug-In . SVG Version: 6.00 Build 0)  -->
<!DOCTYPE svg PUBLIC "-//W3C//DTD SVG 1.1//EN" "http://www.w3.org/Graphics/SVG/1.1/DTD/svg11.dtd">
<svg version="1.1" id="Ebene_1" xmlns="http://www.w3.org/2000/svg" xmlns:xlink="http://www.w3.org/1999/xlink" x="0px" y="0px"
	 width="33px" height="33px" viewBox="0 0 33 33" enable-background="new 0 0 33 33" xml:space="preserve">
<g>
	<path fill="#35A8E0" d="M16.5,0C7.402,0,0,7.401,0,16.5C0,25.599,7.402,33,16.5,33C25.598,33,33,25.599,33,16.5
		C33,7.401,25.598,0,16.5,0z M27.352,15.066c-0.069,0.21-0.29,0.324-0.505,0.255c-1.163-0.381-2.674-0.351-4.219,0.035
		c1.683,0.123,3.219,0.612,4.304,1.389c0.179,0.129,0.221,0.379,0.092,0.559c-0.078,0.108-0.201,0.167-0.325,0.167
		c-0.081,0-0.162-0.024-0.233-0.075c-1.124-0.806-2.82-1.267-4.653-1.271c-0.655,1.489-2.129,2.631-3.949,3.019
		c1.363,0.544,2.332,1.872,2.332,3.428v1.31c0,0.221-0.18,0.4-0.4,0.4c-0.221,0-0.4-0.18-0.4-0.4v-1.31
		c0-1.597-1.298-2.896-2.894-2.896c-1.598,0-2.897,1.299-2.897,2.896v1.31c0,0.221-0.18,0.4-0.4,0.4c-0.221,0-0.4-0.18-0.4-0.4
		v-1.31c0-1.556,0.97-2.884,2.334-3.428c-1.821-0.388-3.295-1.529-3.951-3.019c-1.832,0.004-3.527,0.466-4.651,1.271
		c-0.071,0.051-0.152,0.075-0.233,0.075c-0.124,0-0.247-0.059-0.325-0.167c-0.129-0.18-0.087-0.43,0.092-0.559
		c1.084-0.776,2.621-1.266,4.303-1.389c-1.545-0.385-3.056-0.416-4.218-0.035c-0.214,0.069-0.436-0.045-0.505-0.255
		c-0.069-0.21,0.045-0.435,0.255-0.505c1.37-0.45,3.146-0.402,4.925,0.086c-0.005-0.083-0.015-0.165-0.015-0.25
		c0-0.524,0.1-1.045,0.297-1.55c-0.524-0.909-0.892-2.363-0.184-3.121c0.259-0.278,0.641-0.426,1.102-0.426
		c0.71,0,1.464,0.33,1.977,0.698c1.551-0.65,3.443-0.65,4.99,0C19.508,9.631,20.263,9.3,20.973,9.3c0.462,0,0.844,0.149,1.104,0.429
		c0.699,0.747,0.324,2.228-0.188,3.12c0.197,0.505,0.297,1.024,0.297,1.549c0,0.085-0.01,0.167-0.015,0.25
		c1.781-0.489,3.557-0.536,4.927-0.086C27.308,14.631,27.422,14.856,27.352,15.066z"/>
	<path fill="#35A8E0" d="M21.491,10.274c-0.339-0.364-1.517-0.073-2.182,0.493l-0.195,0.167l-0.233-0.109
		c-1.451-0.682-3.311-0.683-4.764,0l-0.233,0.109l-0.196-0.167c-0.452-0.386-1.15-0.666-1.66-0.666
		c-0.237,0-0.411,0.058-0.518,0.172c-0.372,0.398-0.095,1.595,0.382,2.321l0.119,0.182l-0.089,0.199
		c-0.205,0.463-0.309,0.941-0.309,1.423c0,2.258,2.192,4.095,4.887,4.095c2.693,0,4.885-1.837,4.885-4.095
		c0-0.481-0.103-0.959-0.309-1.422l-0.089-0.199l0.12-0.183C21.585,11.868,21.862,10.671,21.491,10.274z"/>
</g>
</svg>
