<?xml version="1.0" encoding="utf-8"?>
<!-- Generator: Adobe Illustrator 17.0.2, SVG Export Plug-In . SVG Version: 6.00 Build 0)  -->
<!DOCTYPE svg PUBLIC "-//W3C//DTD SVG 1.1//EN" "http://www.w3.org/Graphics/SVG/1.1/DTD/svg11.dtd">
<svg version="1.1" id="Ebene_1" xmlns="http://www.w3.org/2000/svg" xmlns:xlink="http://www.w3.org/1999/xlink" x="0px" y="0px"
	 width="33px" height="33px" viewBox="0 0 33 33" enable-background="new 0 0 33 33" xml:space="preserve">
<path fill="#1D1D1B" d="M27.098,14.562c-1.37-0.45-3.145-0.403-4.927,0.086c0.005-0.083,0.015-0.165,0.015-0.25
	c0-0.524-0.1-1.044-0.297-1.549c0.512-0.893,0.887-2.373,0.188-3.12c-0.26-0.28-0.642-0.429-1.104-0.429
	c-0.71,0-1.465,0.331-1.979,0.699c-1.547-0.65-3.439-0.65-4.99,0c-0.513-0.368-1.267-0.698-1.976-0.698
	c-0.462,0-0.844,0.148-1.103,0.426c-0.708,0.758-0.34,2.212,0.185,3.121c-0.197,0.505-0.297,1.025-0.297,1.55
	c0,0.085,0.01,0.167,0.015,0.25c-1.779-0.488-3.555-0.536-4.925-0.086c-0.21,0.069-0.324,0.295-0.255,0.505
	c0.069,0.21,0.291,0.324,0.505,0.255c1.162-0.381,2.673-0.35,4.218,0.035c-1.682,0.123-3.219,0.612-4.303,1.389
	c-0.179,0.129-0.221,0.379-0.092,0.559c0.078,0.108,0.201,0.167,0.325,0.167c0.081,0,0.162-0.024,0.233-0.075
	c1.124-0.805,2.819-1.267,4.651-1.271c0.656,1.489,2.13,2.631,3.951,3.019c-1.364,0.544-2.334,1.872-2.334,3.428v1.31
	c0,0.221,0.18,0.4,0.4,0.4s0.4-0.18,0.4-0.4v-1.31c0-1.597,1.299-2.896,2.896-2.896c1.597,0,2.895,1.299,2.895,2.896v1.31
	c0,0.221,0.18,0.4,0.4,0.4c0.221,0,0.4-0.18,0.4-0.4v-1.31c0-1.556-0.969-2.884-2.332-3.428c1.82-0.388,3.294-1.529,3.949-3.019
	c1.833,0.003,3.529,0.465,4.653,1.271c0.071,0.051,0.152,0.075,0.233,0.075c0.124,0,0.247-0.059,0.325-0.167
	c0.129-0.18,0.087-0.43-0.092-0.559c-1.085-0.776-2.621-1.266-4.304-1.389c1.545-0.386,3.056-0.416,4.219-0.035
	c0.215,0.069,0.435-0.045,0.505-0.255C27.422,14.856,27.308,14.631,27.098,14.562z M21.076,12.976
	c0.205,0.463,0.309,0.941,0.309,1.422c0,2.258-2.191,4.095-4.885,4.095c-2.694,0-4.887-1.837-4.887-4.095
	c0-0.481,0.103-0.96,0.309-1.423l0.089-0.199l-0.119-0.182c-0.477-0.727-0.754-1.924-0.382-2.321
	c0.106-0.114,0.28-0.172,0.518-0.172c0.51,0,1.208,0.28,1.66,0.666l0.196,0.167l0.233-0.109c1.453-0.683,3.313-0.682,4.764,0
	l0.233,0.109l0.195-0.167c0.665-0.566,1.843-0.857,2.182-0.493c0.371,0.397,0.094,1.595-0.384,2.32l-0.12,0.183L21.076,12.976z
	 M16.5,0C7.402,0,0,7.401,0,16.5C0,25.599,7.402,33,16.5,33C25.598,33,33,25.599,33,16.5C33,7.401,25.598,0,16.5,0z M16.5,32
	C7.953,32,1,25.047,1,16.5C1,7.953,7.953,1,16.5,1S32,7.953,32,16.5C32,25.047,25.047,32,16.5,32z"/>
</svg>
