<?xml version="1.0" encoding="utf-8"?>
<!-- Generator: Adobe Illustrator 17.0.2, SVG Export Plug-In . SVG Version: 6.00 Build 0)  -->
<!DOCTYPE svg PUBLIC "-//W3C//DTD SVG 1.1//EN" "http://www.w3.org/Graphics/SVG/1.1/DTD/svg11.dtd">
<svg version="1.1" id="Ebene_1" xmlns="http://www.w3.org/2000/svg" xmlns:xlink="http://www.w3.org/1999/xlink" x="0px" y="0px"
	 width="33px" height="33px" viewBox="0 0 33 33" enable-background="new 0 0 33 33" xml:space="preserve">
<g>
	<path fill="#1D1D1B" d="M16.5,0C7.402,0,0,7.401,0,16.5C0,25.599,7.402,33,16.5,33C25.599,33,33,25.599,33,16.5
		C33,7.401,25.599,0,16.5,0z M16.5,32C7.953,32,1,25.047,1,16.5C1,7.953,7.953,1,16.5,1C25.047,1,32,7.953,32,16.5
		C32,25.047,25.047,32,16.5,32z"/>
	<path fill="#1D1D1B" d="M18.946,12.649c-1.193,0-2.253,0.539-2.983,1.373v-0.203c0-0.276-0.224-0.5-0.5-0.5
		c-0.276,0-0.5,0.224-0.5,0.5v8.708c0,0.276,0.224,0.5,0.5,0.5c0.276,0,0.5-0.224,0.5-0.5v-5.882c0-0.006,0.003-0.011,0.003-0.017
		c0-1.643,1.336-2.98,2.98-2.98c1.623,0,2.941,1.306,2.973,2.922c0,0.01-0.006,0.019-0.006,0.029v5.927c0,0.276,0.224,0.5,0.5,0.5
		c0.276,0,0.5-0.224,0.5-0.5v-5.841c0.002-0.02,0.012-0.038,0.012-0.058C22.925,14.434,21.14,12.649,18.946,12.649z"/>
	<path fill="#1D1D1B" d="M11.297,13.319c-0.276,0-0.5,0.224-0.5,0.5v8.708c0,0.276,0.224,0.5,0.5,0.5c0.276,0,0.5-0.224,0.5-0.5
		v-8.708C11.797,13.542,11.573,13.319,11.297,13.319z"/>
	<circle fill="#1D1D1B" cx="11.297" cy="10.236" r="0.71"/>
</g>
</svg>
