<?xml version="1.0" encoding="utf-8"?>
<!-- Generator: Adobe Illustrator 17.0.2, SVG Export Plug-In . SVG Version: 6.00 Build 0)  -->
<!DOCTYPE svg PUBLIC "-//W3C//DTD SVG 1.1//EN" "http://www.w3.org/Graphics/SVG/1.1/DTD/svg11.dtd">
<svg version="1.1" id="Ebene_1" xmlns="http://www.w3.org/2000/svg" xmlns:xlink="http://www.w3.org/1999/xlink" x="0px" y="0px"
	 width="33px" height="33px" viewBox="0 0 33 33" enable-background="new 0 0 33 33" xml:space="preserve">
<path fill="#35A8E0" d="M16.5,0C7.402,0,0,7.401,0,16.5C0,25.599,7.402,33,16.5,33C25.599,33,33,25.599,33,16.5
	C33,7.401,25.599,0,16.5,0z M11.745,22.527c0,0.276-0.224,0.5-0.5,0.5c-0.276,0-0.5-0.224-0.5-0.5v-8.708c0-0.276,0.224-0.5,0.5-0.5
	c0.276,0,0.5,0.224,0.5,0.5V22.527z M11.245,10.946c-0.393,0-0.71-0.317-0.71-0.71c0-0.392,0.317-0.709,0.71-0.709
	c0.392,0,0.71,0.317,0.71,0.709C11.955,10.628,11.637,10.946,11.245,10.946z M22.862,16.687v5.841c0,0.276-0.224,0.5-0.5,0.5
	s-0.5-0.224-0.5-0.5V16.6c0-0.01,0.005-0.019,0.006-0.029c-0.032-1.616-1.35-2.922-2.973-2.922c-1.643,0-2.979,1.336-2.979,2.98
	c0,0.006-0.003,0.011-0.003,0.017v5.882c0,0.276-0.224,0.5-0.5,0.5c-0.276,0-0.5-0.224-0.5-0.5v-8.708c0-0.276,0.224-0.5,0.5-0.5
	c0.276,0,0.5,0.224,0.5,0.5v0.203c0.73-0.834,1.79-1.373,2.983-1.373c2.194,0,3.979,1.785,3.979,3.98
	C22.873,16.649,22.864,16.667,22.862,16.687z"/>
</svg>
