<?xml version="1.0" encoding="utf-8"?>
<!-- Generator: Adobe Illustrator 17.0.2, SVG Export Plug-In . SVG Version: 6.00 Build 0)  -->
<!DOCTYPE svg PUBLIC "-//W3C//DTD SVG 1.1//EN" "http://www.w3.org/Graphics/SVG/1.1/DTD/svg11.dtd">
<svg version="1.1" id="Ebene_1" xmlns="http://www.w3.org/2000/svg" xmlns:xlink="http://www.w3.org/1999/xlink" x="0px" y="0px"
	 width="33px" height="33px" viewBox="0 0 33 33" enable-background="new 0 0 33 33" xml:space="preserve">
<g>
	<path fill="#000100" d="M16.5,0C7.402,0,0,7.401,0,16.5C0,25.598,7.402,33,16.5,33c9.099,0,16.501-7.402,16.501-16.5
		C33.001,7.401,25.599,0,16.5,0z M16.5,32C7.953,32,1,25.047,1,16.5C1,7.953,7.953,1,16.5,1c8.548,0,15.501,6.953,15.501,15.5
		C32.001,25.047,25.048,32,16.5,32z"/>
	<g>
		<path fill="#1D1D1B" d="M23.872,13.435H13.129c-0.331,0-0.6-0.269-0.6-0.601c0-0.331,0.269-0.6,0.6-0.6h10.743
			c0.331,0,0.6,0.269,0.6,0.6C24.472,13.166,24.203,13.435,23.872,13.435z"/>
		<path fill="#1D1D1B" d="M23.872,17.435H13.129c-0.331,0-0.6-0.269-0.6-0.601c0-0.331,0.269-0.6,0.6-0.6h10.743
			c0.331,0,0.6,0.269,0.6,0.6C24.472,17.166,24.203,17.435,23.872,17.435z"/>
		<path fill="#1D1D1B" d="M23.872,21.435H13.129c-0.331,0-0.6-0.269-0.6-0.601c0-0.331,0.269-0.6,0.6-0.6h10.743
			c0.331,0,0.6,0.269,0.6,0.6C24.472,21.166,24.203,21.435,23.872,21.435z"/>
		<path fill="#1D1D1B" d="M10.629,13.435h-1.5c-0.331,0-0.6-0.269-0.6-0.601c0-0.331,0.269-0.6,0.6-0.6h1.5
			c0.331,0,0.6,0.269,0.6,0.6C11.229,13.166,10.96,13.435,10.629,13.435z"/>
		<path fill="#1D1D1B" d="M10.629,17.435h-1.5c-0.331,0-0.6-0.269-0.6-0.601c0-0.331,0.269-0.6,0.6-0.6h1.5
			c0.331,0,0.6,0.269,0.6,0.6C11.229,17.166,10.96,17.435,10.629,17.435z"/>
		<path fill="#1D1D1B" d="M10.629,21.435h-1.5c-0.331,0-0.6-0.269-0.6-0.601c0-0.331,0.269-0.6,0.6-0.6h1.5
			c0.331,0,0.6,0.269,0.6,0.6C11.229,21.166,10.96,21.435,10.629,21.435z"/>
	</g>
</g>
</svg>
