<?xml version="1.0" encoding="utf-8"?>
<!-- Generator: Adobe Illustrator 17.0.2, SVG Export Plug-In . SVG Version: 6.00 Build 0)  -->
<!DOCTYPE svg PUBLIC "-//W3C//DTD SVG 1.1//EN" "http://www.w3.org/Graphics/SVG/1.1/DTD/svg11.dtd">
<svg version="1.1" id="Ebene_1" xmlns="http://www.w3.org/2000/svg" xmlns:xlink="http://www.w3.org/1999/xlink" x="0px" y="0px"
	 width="33px" height="33px" viewBox="0 0 33 33" enable-background="new 0 0 33 33" xml:space="preserve">
<g>
	<path fill="#35A8E0" d="M16.5,0C7.402,0,0,7.402,0,16.5C0,25.598,7.402,33,16.5,33c9.1,0,16.501-7.402,16.501-16.5
		C33.001,7.402,25.6,0,16.5,0z M23.966,16.979l-10.559,6.47c-0.08,0.049-0.171,0.074-0.261,0.074c-0.084,0-0.169-0.021-0.244-0.064
		c-0.158-0.088-0.256-0.255-0.256-0.436V9.427c0-0.185,0.102-0.354,0.265-0.441c0.163-0.086,0.36-0.076,0.515,0.027l10.559,7.126
		c0.141,0.095,0.224,0.255,0.221,0.425C24.201,16.734,24.111,16.89,23.966,16.979z"/>
	<polygon fill="#35A8E0" points="13.577,22.31 22.711,16.711 13.577,10.547 	"/>
</g>
</svg>
