<?xml version="1.0" encoding="utf-8"?>
<!-- Generator: Adobe Illustrator 17.0.2, SVG Export Plug-In . SVG Version: 6.00 Build 0)  -->
<!DOCTYPE svg PUBLIC "-//W3C//DTD SVG 1.1//EN" "http://www.w3.org/Graphics/SVG/1.1/DTD/svg11.dtd">
<svg version="1.1" id="Ebene_1" xmlns="http://www.w3.org/2000/svg" xmlns:xlink="http://www.w3.org/1999/xlink" x="0px" y="0px"
	 width="33px" height="33px" viewBox="0 0 33 33" enable-background="new 0 0 33 33" xml:space="preserve">
<path fill="#35A8E0" d="M16.5,0C7.402,0,0,7.401,0,16.5C0,25.598,7.402,33,16.5,33c9.1,0,16.502-7.402,16.502-16.5
	C33.002,7.401,25.6,0,16.5,0z M24.215,17.435h-7.275v7.274c0,0.331-0.268,0.601-0.6,0.601s-0.6-0.27-0.6-0.601v-7.274H8.467
	c-0.331,0-0.6-0.268-0.6-0.6c0-0.332,0.269-0.6,0.6-0.6h7.274V8.961c0-0.331,0.268-0.601,0.6-0.601s0.6,0.269,0.6,0.601v7.274h7.275
	c0.331,0,0.6,0.267,0.6,0.6C24.814,17.167,24.546,17.435,24.215,17.435z"/>
</svg>
