<?xml version="1.0" encoding="utf-8"?>
<!-- Generator: Adobe Illustrator 17.0.2, SVG Export Plug-In . SVG Version: 6.00 Build 0)  -->
<!DOCTYPE svg PUBLIC "-//W3C//DTD SVG 1.1//EN" "http://www.w3.org/Graphics/SVG/1.1/DTD/svg11.dtd">
<svg version="1.1" id="Ebene_1" xmlns="http://www.w3.org/2000/svg" xmlns:xlink="http://www.w3.org/1999/xlink" x="0px" y="0px"
	 width="33px" height="33px" viewBox="0 0 33 33" enable-background="new 0 0 33 33" xml:space="preserve">
<g>
	<path fill="#000100" d="M16.5,0C7.402,0,0,7.401,0,16.5C0,25.598,7.402,33,16.5,33c9.1,0,16.502-7.402,16.502-16.5
		C33.002,7.401,25.6,0,16.5,0z M16.5,32C7.953,32,1,25.047,1,16.5S7.953,1,16.5,1c8.549,0,15.502,6.953,15.502,15.5
		S25.049,32,16.5,32z"/>
	<path fill="#1D1D1B" d="M16.34,25.31c-0.331,0-0.6-0.27-0.6-0.601V8.961c0-0.331,0.269-0.601,0.6-0.601
		c0.331,0,0.6,0.269,0.6,0.601v15.748C16.939,25.04,16.671,25.31,16.34,25.31z"/>
	<path fill="#1D1D1B" d="M24.215,17.435H8.467c-0.331,0-0.6-0.268-0.6-0.6c0-0.332,0.269-0.6,0.6-0.6h15.748
		c0.331,0,0.6,0.267,0.6,0.6C24.814,17.167,24.546,17.435,24.215,17.435z"/>
</g>
</svg>
