<?xml version="1.0" encoding="utf-8"?>
<!-- Generator: Adobe Illustrator 17.0.2, SVG Export Plug-In . SVG Version: 6.00 Build 0)  -->
<!DOCTYPE svg PUBLIC "-//W3C//DTD SVG 1.1//EN" "http://www.w3.org/Graphics/SVG/1.1/DTD/svg11.dtd">
<svg version="1.1" id="Ebene_1" xmlns="http://www.w3.org/2000/svg" xmlns:xlink="http://www.w3.org/1999/xlink" x="0px" y="0px"
	 width="33px" height="33px" viewBox="0 0 33 33" enable-background="new 0 0 33 33" xml:space="preserve">
<path fill="#000100" d="M16.5,0C7.402,0,0,7.402,0,16.5C0,25.598,7.402,33,16.5,33c9.1,0,16.502-7.402,16.502-16.5
	C33.002,7.402,25.6,0,16.5,0z M16.5,32C7.953,32,1,25.047,1,16.5S7.953,1,16.5,1c8.549,0,15.502,6.953,15.502,15.5
	S25.049,32,16.5,32z"/>
<g>
	<path fill="#1D1D1B" d="M10.459,24.848c-2.673,0-4.848-2.175-4.848-4.849c0-2.673,2.175-4.848,4.848-4.848
		c2.673,0,4.848,2.175,4.848,4.848C15.307,22.673,13.133,24.848,10.459,24.848z M10.459,16.251c-2.067,0-3.749,1.682-3.749,3.749
		s1.682,3.749,3.749,3.749c2.066,0,3.748-1.682,3.748-3.749S12.526,16.251,10.459,16.251z"/>
	<path fill="#1D1D1B" d="M22.406,24.848c-2.673,0-4.848-2.175-4.848-4.849c0-2.673,2.175-4.848,4.848-4.848
		c2.673,0,4.848,2.175,4.848,4.848C27.254,22.673,25.079,24.848,22.406,24.848z M22.406,16.251c-2.067,0-3.748,1.682-3.748,3.749
		s1.682,3.749,3.748,3.749s3.749-1.682,3.749-3.749S24.473,16.251,22.406,16.251z"/>
	<path fill="#1D1D1B" d="M18.482,18.657c-0.133,0-0.267-0.048-0.372-0.145c-0.92-0.845-2.443-0.864-3.383-0.042
		c-0.229,0.2-0.576,0.177-0.776-0.053c-0.2-0.229-0.176-0.576,0.052-0.776c1.348-1.177,3.532-1.15,4.851,0.061
		c0.224,0.206,0.238,0.554,0.033,0.777C18.779,18.597,18.631,18.657,18.482,18.657z"/>
	<path fill="#1D1D1B" d="M6.341,19.331c-0.054,0-0.11-0.008-0.165-0.025c-0.29-0.091-0.451-0.4-0.36-0.689
		c0.122-0.387,2.978-9.486,3.142-9.96c0.648-1.869,2.797-1.791,2.89-1.784c0.304,0.014,0.538,0.272,0.523,0.575
		c-0.014,0.304-0.286,0.532-0.575,0.523c-0.056,0.001-1.422-0.041-1.799,1.045c-0.127,0.368-2.105,6.656-3.132,9.93
		C6.792,19.181,6.575,19.331,6.341,19.331z"/>
	<path fill="#1D1D1B" d="M26.528,19.331c-0.234,0-0.451-0.15-0.525-0.386c-1.027-3.274-3.005-9.562-3.132-9.93
		c-0.381-1.097-1.782-1.043-1.799-1.044c-0.309,0.007-0.561-0.22-0.575-0.523c-0.015-0.303,0.22-0.561,0.523-0.575
		c0.093-0.003,2.243-0.083,2.89,1.783c0.165,0.475,3.021,9.574,3.143,9.961c0.091,0.29-0.07,0.598-0.36,0.689
		C26.638,19.323,26.582,19.331,26.528,19.331z"/>
</g>
</svg>
