<?xml version="1.0" encoding="utf-8"?>
<!-- Generator: Adobe Illustrator 17.0.2, SVG Export Plug-In . SVG Version: 6.00 Build 0)  -->
<!DOCTYPE svg PUBLIC "-//W3C//DTD SVG 1.1//EN" "http://www.w3.org/Graphics/SVG/1.1/DTD/svg11.dtd">
<svg version="1.1" id="Ebene_1" xmlns="http://www.w3.org/2000/svg" xmlns:xlink="http://www.w3.org/1999/xlink" x="0px" y="0px"
	 width="33px" height="33px" viewBox="0 0 33 33" enable-background="new 0 0 33 33" xml:space="preserve">
<g>
	<path fill="#35A8E0" d="M10.525,16.251c-2.067,0-3.749,1.682-3.749,3.749s1.682,3.749,3.749,3.749c2.066,0,3.748-1.682,3.748-3.749
		S12.592,16.251,10.525,16.251z"/>
	<path fill="#35A8E0" d="M22.472,16.251c-2.067,0-3.748,1.682-3.748,3.749s1.682,3.749,3.748,3.749c2.067,0,3.749-1.682,3.749-3.749
		S24.539,16.251,22.472,16.251z"/>
	<path fill="#35A8E0" d="M16.5,0C7.402,0,0,7.402,0,16.5C0,25.598,7.402,33,16.5,33c9.1,0,16.502-7.402,16.502-16.5
		C33.002,7.402,25.6,0,16.5,0z M22.472,24.848c-2.673,0-4.848-2.175-4.848-4.849c0-0.588,0.121-1.145,0.313-1.667
		c-0.844-0.595-2.031-0.612-2.891-0.043c0.202,0.534,0.327,1.105,0.327,1.709c0,2.674-2.174,4.849-4.848,4.849
		S5.677,22.673,5.677,20c0-0.448,0.08-0.873,0.195-1.285c0.004-0.033,0-0.065,0.01-0.098c0.122-0.387,2.978-9.486,3.143-9.96
		c0.648-1.869,2.797-1.791,2.89-1.784c0.304,0.014,0.538,0.272,0.523,0.575c-0.014,0.304-0.286,0.532-0.575,0.523
		c-0.056,0.001-1.422-0.041-1.799,1.045C9.97,9.289,8.86,12.811,7.874,15.95c0.763-0.502,1.672-0.798,2.652-0.798
		c1.674,0,3.152,0.854,4.024,2.148c1.17-0.705,2.722-0.691,3.88,0.034c0.869-1.312,2.354-2.182,4.042-2.182
		c0.981,0,1.893,0.297,2.657,0.801c-0.987-3.139-2.097-6.663-2.191-6.936c-0.381-1.097-1.782-1.043-1.799-1.044
		c-0.31,0.007-0.561-0.22-0.575-0.523c-0.015-0.303,0.22-0.561,0.523-0.575c0.093-0.003,2.243-0.083,2.89,1.783
		c0.165,0.475,3.021,9.574,3.143,9.961c0.012,0.039,0.009,0.078,0.012,0.117C27.242,19.14,27.32,19.559,27.32,20
		C27.32,22.673,25.145,24.848,22.472,24.848z"/>
</g>
</svg>
