<?xml version="1.0" encoding="utf-8"?>
<!-- Generator: Adobe Illustrator 17.0.2, SVG Export Plug-In . SVG Version: 6.00 Build 0)  -->
<!DOCTYPE svg PUBLIC "-//W3C//DTD SVG 1.1//EN" "http://www.w3.org/Graphics/SVG/1.1/DTD/svg11.dtd">
<svg version="1.1" id="Ebene_1" xmlns="http://www.w3.org/2000/svg" xmlns:xlink="http://www.w3.org/1999/xlink" x="0px" y="0px"
	 width="33px" height="33px" viewBox="0 0 33 33" enable-background="new 0 0 33 33" xml:space="preserve">
<g>
	<path fill="#1D1D1B" d="M16.5,0C7.402,0,0,7.402,0,16.5C0,25.598,7.402,33,16.5,33C25.598,33,33,25.598,33,16.5
		C33,7.402,25.598,0,16.5,0z M16.5,32C7.953,32,1,25.047,1,16.5C1,7.953,7.953,1,16.5,1C25.047,1,32,7.953,32,16.5
		C32,25.047,25.047,32,16.5,32z"/>
	<path fill="#1D1D1B" d="M17.232,15.623c-1.426-0.305-2.107-0.657-2.107-0.657c-0.94-0.522-1.523-1.512-1.523-2.585
		c0-1.628,1.324-2.953,2.952-2.953c1.134,0,2.182,0.662,2.668,1.687c0.118,0.248,0.416,0.354,0.666,0.237
		c0.249-0.119,0.355-0.417,0.237-0.667c-0.652-1.371-2.054-2.257-3.572-2.257c-2.179,0-3.952,1.773-3.952,3.953
		c0,1.436,0.781,2.761,2.044,3.462c0.032,0.017,0.791,0.419,2.377,0.757c1.204,0.257,1.762,0.792,1.768,0.798
		c0.686,0.683,1.063,1.592,1.063,2.56c0,1.992-1.621,3.612-3.612,3.612c-1.311,0-2.522-0.713-3.16-1.861
		c-0.134-0.241-0.437-0.328-0.68-0.194c-0.241,0.134-0.328,0.438-0.194,0.68c0.814,1.464,2.36,2.375,4.034,2.375
		c2.543,0,4.612-2.069,4.612-4.612c0-1.236-0.482-2.397-1.354-3.265C19.471,16.663,18.752,15.948,17.232,15.623z"/>
</g>
</svg>
