<?xml version="1.0" encoding="utf-8"?>
<!-- Generator: Adobe Illustrator 17.0.2, SVG Export Plug-In . SVG Version: 6.00 Build 0)  -->
<!DOCTYPE svg PUBLIC "-//W3C//DTD SVG 1.1//EN" "http://www.w3.org/Graphics/SVG/1.1/DTD/svg11.dtd">
<svg version="1.1" id="Ebene_1" xmlns="http://www.w3.org/2000/svg" xmlns:xlink="http://www.w3.org/1999/xlink" x="0px" y="0px"
	 width="33px" height="33px" viewBox="0 0 33 33" enable-background="new 0 0 33 33" xml:space="preserve">
<path fill="#35A8E0" d="M16.5,0C7.402,0,0,7.402,0,16.5C0,25.598,7.402,33,16.5,33c9.099,0,16.501-7.402,16.501-16.5
	C33.001,7.402,25.599,0,16.5,0z M16.243,24.571c-1.674,0-3.22-0.91-4.034-2.375c-0.134-0.242-0.047-0.546,0.194-0.68
	c0.243-0.134,0.546-0.047,0.68,0.194c0.638,1.148,1.849,1.861,3.16,1.861c1.992,0,3.612-1.621,3.612-3.612
	c0-0.968-0.378-1.877-1.064-2.56c-0.006-0.006-0.564-0.541-1.768-0.798c-1.585-0.338-2.345-0.74-2.377-0.757
	c-1.264-0.701-2.044-2.026-2.044-3.462c0-2.18,1.773-3.953,3.952-3.953c1.518,0,2.92,0.886,3.572,2.257
	c0.119,0.25,0.012,0.548-0.237,0.667c-0.25,0.117-0.548,0.012-0.666-0.237c-0.487-1.025-1.534-1.687-2.669-1.687
	c-1.628,0-2.952,1.325-2.952,2.953c0,1.073,0.583,2.064,1.523,2.585c0,0,0.681,0.352,2.107,0.657c1.52,0.324,2.238,1.04,2.268,1.07
	c0.872,0.868,1.354,2.029,1.354,3.265C20.855,22.502,18.787,24.571,16.243,24.571z"/>
</svg>
