<?xml version="1.0" encoding="utf-8"?>
<!-- Generator: Adobe Illustrator 17.0.2, SVG Export Plug-In . SVG Version: 6.00 Build 0)  -->
<!DOCTYPE svg PUBLIC "-//W3C//DTD SVG 1.1//EN" "http://www.w3.org/Graphics/SVG/1.1/DTD/svg11.dtd">
<svg version="1.1" id="Ebene_1" xmlns="http://www.w3.org/2000/svg" xmlns:xlink="http://www.w3.org/1999/xlink" x="0px" y="0px"
	 width="38px" height="28px" viewBox="0 0 38 28" enable-background="new 0 0 38 28" xml:space="preserve">
<g>
	<path fill="#1D1D1B" d="M20.471,24.107h6.824v-3.412H10.235v3.412h6.824v3.412h-6.824v-3.412H6.824v-6.824H3.412v6.824H0V13.871
		h3.412v-3.412h3.412V7.048h3.412V3.636H6.824V0.224h3.412v3.412h3.412v3.412h10.235V3.636h3.412V0.224h3.412v3.412h-3.412v3.412
		h3.412v3.412h3.411v3.412h3.412v10.236h-3.412v-6.824h-3.411v6.824h-3.412v3.412h-6.824V24.107z M13.647,13.871v-3.412h-3.412
		v3.412H13.647z M27.294,13.871v-3.412h-3.412v3.412H27.294z"/>
</g>
</svg>
