<?xml version="1.0" encoding="utf-8"?>
<!-- Generator: Adobe Illustrator 17.0.2, SVG Export Plug-In . SVG Version: 6.00 Build 0)  -->
<!DOCTYPE svg PUBLIC "-//W3C//DTD SVG 1.1//EN" "http://www.w3.org/Graphics/SVG/1.1/DTD/svg11.dtd">
<svg version="1.1" id="Ebene_1" xmlns="http://www.w3.org/2000/svg" xmlns:xlink="http://www.w3.org/1999/xlink" x="0px" y="0px"
	 width="33px" height="33px" viewBox="0 0 33 33" enable-background="new 0 0 33 33" xml:space="preserve">
<g>
	<polygon fill="#35A8E0" points="16.632,10.413 13.847,17.995 19.454,17.995 16.67,10.413 	"/>
	<path fill="#35A8E0" d="M16.5,0C7.402,0,0,7.402,0,16.5C0,25.598,7.402,33,16.5,33c9.1,0,16.502-7.402,16.502-16.5
		C33.002,7.402,25.6,0,16.5,0z M21.542,22.266c-0.471,0-0.621-0.282-0.753-0.621l-0.884-2.408h-6.509l-0.884,2.408
		c-0.169,0.338-0.282,0.621-0.753,0.621c-0.395,0-0.602-0.245-0.602-0.527c0-0.15,0.057-0.376,0.132-0.565l4.309-11.552
		c0.169-0.433,0.376-0.978,1.054-0.978c0.677,0,0.884,0.545,1.053,0.978l4.309,11.552c0.075,0.189,0.132,0.414,0.132,0.565
		C22.144,22.021,21.938,22.266,21.542,22.266z"/>
</g>
</svg>
