<?xml version="1.0" encoding="utf-8"?>
<!-- Generator: Adobe Illustrator 17.0.2, SVG Export Plug-In . SVG Version: 6.00 Build 0)  -->
<!DOCTYPE svg PUBLIC "-//W3C//DTD SVG 1.1//EN" "http://www.w3.org/Graphics/SVG/1.1/DTD/svg11.dtd">
<svg version="1.1" id="Ebene_1" xmlns="http://www.w3.org/2000/svg" xmlns:xlink="http://www.w3.org/1999/xlink" x="0px" y="0px"
	 width="33px" height="33px" viewBox="0 0 33 33" enable-background="new 0 0 33 33" xml:space="preserve">
<g>
	<path fill="#1D1D1B" d="M16.5,0C7.402,0,0,7.402,0,16.5C0,25.598,7.402,33,16.5,33c9.1,0,16.502-7.402,16.502-16.5
		C33.002,7.402,25.6,0,16.5,0z M16.5,32C7.953,32,1,25.047,1,16.5C1,7.953,7.953,1,16.5,1c8.549,0,15.502,6.953,15.502,15.5
		C32.002,25.047,25.049,32,16.5,32z"/>
	<path fill="#1D1D1B" d="M17.555,9.508c-0.169-0.433-0.376-0.978-1.053-0.978c-0.678,0-0.884,0.545-1.054,0.978L11.139,21.06
		c-0.075,0.189-0.132,0.414-0.132,0.565c0,0.282,0.207,0.527,0.602,0.527c0.471,0,0.584-0.282,0.753-0.621l0.884-2.408h6.509
		l0.884,2.408c0.132,0.338,0.282,0.621,0.753,0.621c0.395,0,0.602-0.245,0.602-0.527c0-0.15-0.057-0.376-0.132-0.565L17.555,9.508z
		 M13.698,17.881l2.785-7.582h0.038l2.785,7.582H13.698z"/>
</g>
</svg>
