<?xml version="1.0" encoding="utf-8"?>
<!-- Generator: Adobe Illustrator 17.0.2, SVG Export Plug-In . SVG Version: 6.00 Build 0)  -->
<!DOCTYPE svg PUBLIC "-//W3C//DTD SVG 1.1//EN" "http://www.w3.org/Graphics/SVG/1.1/DTD/svg11.dtd">
<svg version="1.1" id="Ebene_1" xmlns="http://www.w3.org/2000/svg" xmlns:xlink="http://www.w3.org/1999/xlink" x="0px" y="0px"
	 width="33px" height="33px" viewBox="0 0 33 33" enable-background="new 0 0 33 33" xml:space="preserve">
<path fill="#000100" d="M24.552,12.778c-0.395,0.045-0.822,0.024-1.313-0.052c-0.616-1.171-1.833-1.917-3.159-1.917
	c-1.83,0-3.343,1.381-3.552,3.155c-2.196-0.229-4.217-1.282-5.591-2.926c-0.084-0.101-0.223-0.151-0.341-0.142
	c-0.131,0.011-0.247,0.085-0.312,0.198c-0.254,0.44-1.215,3.393-0.46,5.524c0.848,2.392,2.186,3.322,3.133,3.684
	c-0.955,0.452-2.26,0.511-2.869,0.511c-0.34,0-0.559-0.017-0.566-0.018c-0.166-0.01-0.351,0.097-0.41,0.27
	c-0.059,0.173,0.007,0.364,0.16,0.464c1.527,1,3.507,1.597,5.295,1.597c5.056,0,8.834-3.461,9.069-8.262
	c0.565-0.352,1.047-0.892,1.341-1.512c0.059-0.123,0.041-0.262-0.03-0.373C24.868,12.841,24.711,12.767,24.552,12.778z
	 M23.058,14.274c-0.129,0.067-0.211,0.199-0.214,0.344c-0.114,4.467-3.596,7.709-8.278,7.709c-1.154,0-2.398-0.272-3.522-0.754
	c1.063-0.094,2.372-0.379,3.158-1.165c0.109-0.11,0.146-0.274,0.093-0.421c-0.054-0.147-0.188-0.248-0.343-0.261
	c-0.526-0.044-2.325-0.415-3.375-3.374c-0.503-1.42-0.102-3.352,0.192-4.306c1.579,1.618,3.769,2.61,6.106,2.749
	c0.181,0.019,0.356-0.119,0.41-0.295c0.012-0.038,0.017-0.077,0.017-0.117c0-1.529,1.245-2.774,2.775-2.774
	c1.085,0,2.076,0.644,2.526,1.643c0.054,0.12,0.164,0.206,0.294,0.229c0.347,0.062,0.676,0.101,0.981,0.114
	C23.649,13.878,23.366,14.113,23.058,14.274z M16.5,0C7.402,0,0,7.401,0,16.5S7.402,33,16.5,33c9.099,0,16.501-7.401,16.501-16.5
	S25.599,0,16.5,0z M16.5,32C7.953,32,1,25.047,1,16.5S7.953,1,16.5,1s15.501,6.953,15.501,15.5S25.047,32,16.5,32z"/>
</svg>
